# xmcd CD database file
#
# Track frame offsets:
#	150
#	12902
#	25085
#	38455
#	51167
#	63900
#	77867
#	90895
#	105605
#	119957
#	131402
#	143662
#	156725
#	170332
#	182437
#	195622
#	208885
#	221082
#
# Disc length: 3147 seconds
#
# Revision: 1
# Processed by: cddbd v1.5.1PL0 Copyright (c) Steve Scherf et al.
# Submitted via: CDex 1.51
#
DISCID=f80c4912
DTITLE=Dinah Washington - Queen Of Blues
DYEAR=1998
DGENRE=Jazz
TTITLE0=Am I Asking Too Much?
TTITLE1=It's Too Soon To Know
TTITLE2=West Side Baby
TTITLE3=Ain't Misbehavin'
TTITLE4=Wise Woman Blues
TTITLE5=My Lovin Papa
TTITLE6=Blues For A Day
TTITLE7=Resolution Blues
TTITLE8=I Want To Cry
TTITLE9=Walkin' And Talkin'
TTITLE10=You Can Depend On Me
TTITLE11=I Want To Be Loved
TTITLE12=Stairway To The Stars
TTITLE13=Pacific Coast Blues
TTITLE14=Rich Man Blues
TTITLE15=When A Woman Loves A Man
TTITLE16=A Slick Chick (On The Mellow Side)
TTITLE17=Walkin' And Talkin' (alternate)
EXTD=YEAR: 1998
EXTT0=
EXTT1=
EXTT2=
EXTT3=
EXTT4=
EXTT5=
EXTT6=
EXTT7=
EXTT8=
EXTT9=
EXTT10=
EXTT11=
EXTT12=
EXTT13=
EXTT14=
EXTT15=
EXTT16=
EXTT17=
PLAYORDER=
